<svg width="256" height="350" viewBox="0 0 256 350" fill="none" xmlns="http://www.w3.org/2000/svg">
<path d="M0 65H256V221C256 276.228 211.228 321 156 321H0V65Z" fill="#FFCADB"/>
<path d="M61.25 206.5C61.9167 197.833 62.8333 189.333 64 181C65.1667 172.5 67.4167 164.167 70.75 156C73.25 150 76.5 144.583 80.5 139.75C84.6667 134.75 89.3333 130.5 94.5 127C99.8333 123.5 105.5 120.833 111.5 119C117.667 117 123.917 116 130.25 116C139.75 116 148.667 118 157 122C165.5 126 172.833 131.417 179 138.25C185.333 144.917 190.25 152.583 193.75 161.25C197.417 169.917 199.25 178.833 199.25 188C199.25 195.167 197.917 201.917 195.25 208.25C192.583 214.583 188.917 220.167 184.25 225C179.75 229.833 174.333 233.667 168 236.5C161.667 239.333 154.833 240.75 147.5 240.75C142.5 240.75 137.25 239.833 131.75 238C131.417 238 130.583 237.833 129.25 237.5C128.083 237 126.75 236.5 125.25 236C123.75 235.5 122.333 235.083 121 234.75C119.833 234.25 119.083 233.917 118.75 233.75C116.583 232.917 114.333 232.5 112 232.5C110.667 232.5 109.583 232.833 108.75 233.5C108.083 234.167 107.583 235.083 107.25 236.25C106.917 237.25 106.667 238.333 106.5 239.5C106.5 240.667 106.5 241.75 106.5 242.75C106.5 245.75 106.667 248.75 107 251.75C107.5 254.75 107.75 257.667 107.75 260.5C107.75 263.5 107.167 266.5 106 269.5C105 272.5 103.5 275.167 101.5 277.5C99.6667 280 97.4167 282 94.75 283.5C92.0833 285 89.0833 285.75 85.75 285.75C81.75 285.75 78.3333 284.333 75.5 281.5C72.6667 278.833 70.3333 275.25 68.5 270.75C66.6667 266.417 65.25 261.5 64.25 256C63.25 250.667 62.5 245.333 62 240C61.6667 234.833 61.4167 230 61.25 225.5C61.25 221 61.25 217.417 61.25 214.75V206.5ZM70.75 214.5C70.75 216.333 70.75 219.167 70.75 223C70.9167 226.667 71.0833 230.833 71.25 235.5C71.5833 240 72.0833 244.583 72.75 249.25C73.4167 254.083 74.3333 258.5 75.5 262.5C76.6667 266.5 78.0833 269.75 79.75 272.25C81.5833 274.75 83.8333 276 86.5 276C88.1667 276 89.75 275.5 91.25 274.5C92.75 273.5 94 272.25 95 270.75C96 269.25 96.75 267.583 97.25 265.75C97.9167 264.083 98.25 262.5 98.25 261C98.25 257.833 98.0833 254.75 97.75 251.75C97.4167 248.75 97.25 245.667 97.25 242.5V237C98.0833 232.667 99.5833 229.25 101.75 226.75C104.083 224.25 107.667 223 112.5 223C115.5 223 118.417 223.417 121.25 224.25C124.25 225.083 127.167 226 130 227C133 228 135.917 228.917 138.75 229.75C141.75 230.583 144.917 231 148.25 231C154.25 231 159.75 229.833 164.75 227.5C169.917 225.167 174.333 222.083 178 218.25C181.667 214.25 184.5 209.667 186.5 204.5C188.667 199.333 189.75 193.833 189.75 188C189.75 180 188.167 172.25 185 164.75C182 157.25 177.75 150.583 172.25 144.75C166.917 138.75 160.667 134 153.5 130.5C146.333 127 138.667 125.25 130.5 125.25C119.333 125.25 109.083 128.417 99.75 134.75C90.5833 140.917 83.8333 149.25 79.5 159.75C75.8333 168.417 73.4167 177.417 72.25 186.75C71.25 195.917 70.75 205.167 70.75 214.5ZM111 177.75C111 176.417 111.167 174.833 111.5 173C111.833 171 112.333 169.333 113 168C114.167 165.167 116 163.167 118.5 162C121 160.667 123.75 160 126.75 160C131.583 160 135.5 161.667 138.5 165C141.667 168.333 143.25 172.5 143.25 177.5C143.25 181.833 141.917 185.833 139.25 189.5C136.583 193.167 132.75 195 127.75 195C123.25 195 119.333 193.25 116 189.75C112.667 186.25 111 182.25 111 177.75ZM120.5 179.75C120.5 181.083 121.333 182.5 123 184C124.833 185.333 126.417 186 127.75 186C130.083 186 131.75 185.083 132.75 183.25C133.75 181.25 134.25 179.333 134.25 177.5C134.25 175.167 133.5 173.25 132 171.75C130.5 170.25 128.583 169.5 126.25 169.5C124.75 169.5 123.583 169.833 122.75 170.5C121.917 171.167 121.25 172 120.75 173C120.417 174 120.25 175.167 120.25 176.5C120.25 177.667 120.333 178.75 120.5 179.75Z" fill="white"/>
</svg>
