<svg width="256" height="256" viewBox="0 0 256 256" fill="none" xmlns="http://www.w3.org/2000/svg">
<path d="M223.93 66.8338L201.436 57.6597L223.93 48.4856L219.927 38.9815L197.433 48.1556L206.762 25.9959L197.115 22.0688L187.802 44.2286L178.473 22.0688L168.843 25.9959L178.155 48.1556L155.661 38.9815L151.675 48.4856L174.152 57.6597L151.675 66.8338L155.661 76.3379L178.155 67.1473L168.843 89.307L178.49 93.2505L187.802 71.0908L197.115 93.2505L206.762 89.307L197.433 67.1473L219.927 76.3379L223.93 66.8338Z" fill="#464D9C"/>
<path d="M78.3304 128.693H93.304V89.3071H42.1357V102.573H78.3304V128.693Z" fill="#464D9C"/>
<path d="M136.718 128.693H151.675V89.3071H100.506V102.573H136.718V128.693Z" fill="#464D9C"/>
<path d="M39.7241 149.054H136.718V169.332H151.675V135.788H39.7241V149.054Z" fill="#464D9C"/>
<path d="M75.918 231.291H151.657V176.164H75.918V231.291ZM90.8916 189.43H136.717V218.025H90.8916V189.43Z" fill="#464D9C"/>
</svg>
