<svg width="256" height="256" viewBox="0 0 256 256" fill="none" xmlns="http://www.w3.org/2000/svg">
<rect width="256" height="256" fill="white"/>
<path d="M250.734 155.369C248.882 152.215 246.322 149.598 243.104 147.579C243.923 140.073 243.458 128.104 237.757 111.152C229.524 86.6694 202.113 76.5926 188.983 73.0997L185.488 40.6539C185.224 38.1702 184.024 35.9467 182.207 34.5353C180.39 33.1239 178.122 32.6824 175.999 33.3132C156.107 39.1716 129.432 61.3829 128.301 62.3212C128.01 62.5656 127.746 62.8337 127.497 63.1097C121.601 59.7823 114.797 56.8886 106.994 54.5942C82.3441 47.3559 47.845 64.9074 24.9565 96.3203C5.20313 123.436 -7.87796 166.148 5.36266 195.306C16.0786 218.905 29.9851 223.864 39.7647 223.864C41.0478 223.864 42.3448 223.778 43.621 223.596C64.8241 220.655 82.9267 195.053 87.546 173.023C94.1351 141.547 117.745 93.7578 117.981 93.2768C118.98 91.2583 119.236 88.9165 118.688 86.6851C118.14 84.4538 116.864 82.6008 115.088 81.4575C111.426 79.1079 106.765 80.5823 104.692 84.7455C103.679 86.7876 79.8056 135.066 72.7032 169.002C69.2561 185.458 56.0085 204.405 41.7761 206.376C32.912 207.606 25.2201 201.211 18.9293 187.35C10.0721 167.835 17.7155 133.458 36.7129 107.383C55.7034 81.3235 84.2792 65.8536 103.186 71.3887C143.109 83.1055 147.264 109.811 145.495 119.115C141.736 138.89 157.175 148.084 166.456 153.619C167.246 154.092 168.016 154.549 168.758 154.999C173.842 158.113 177.616 162.568 178.593 166.637C179.301 169.546 178.767 172.527 176.929 176.02C172.844 183.762 161.753 197.813 146.127 201.369C133.649 204.208 120.429 199.871 106.849 188.485C105.212 187.113 103.193 186.546 101.182 186.885C99.1637 187.232 97.3881 188.446 96.1812 190.315C94.9744 192.175 94.475 194.47 94.7732 196.756C95.0715 199.043 96.1465 201.069 97.7904 202.441C114.977 216.855 132.248 222.216 149.116 218.376C168.613 213.945 183.331 197.592 190.01 184.945C194.026 177.328 195.136 169.625 193.305 162.048C190.301 149.637 180.196 142.312 175.986 139.734C175.216 139.261 174.411 138.78 173.593 138.291L173.482 138.228C163.341 132.188 159.284 128.703 160.408 122.789C162.981 109.243 158.722 88.9638 141.362 73.0918C147.59 68.2269 160.068 58.9623 171.498 53.443L174.508 81.4102C174.917 85.2265 177.539 88.3173 180.882 88.9244C181.236 88.9875 216.207 95.6501 223.503 117.365C230.405 137.889 227.686 147.729 227.276 148.998C226.153 151.332 226.07 154.076 227.055 156.576C228.046 159.099 230.086 160.865 232.61 161.409C233.824 161.693 236.883 162.994 238.055 165.028C238.429 165.683 238.88 166.826 238.429 169.246C235.842 183.218 221.776 197.237 190.079 194.706C188.047 194.541 186.084 195.29 184.544 196.812C183.005 198.333 182.075 200.439 181.937 202.749C181.638 207.519 184.815 211.674 189.011 212.013C191.855 212.242 194.657 212.352 197.341 212.352C233.248 212.352 249.825 191.931 253.362 172.818C254.555 166.376 253.654 160.345 250.748 155.385L250.734 155.369Z" fill="black"/>
<path d="M221.727 146.166C221.727 139.062 216.643 133.282 210.394 133.282C204.145 133.282 199.061 139.062 199.061 146.166C199.061 153.27 204.145 159.05 210.394 159.05C216.643 159.05 221.727 153.27 221.727 146.166Z" fill="black"/>
<path d="M142.781 142.225C142.781 135.12 137.697 129.341 131.447 129.341C125.198 129.341 120.121 135.12 120.121 142.225C120.121 149.329 125.205 155.108 131.447 155.108C137.69 155.108 142.781 149.329 142.781 142.225Z" fill="black"/>
</svg>
