<svg xmlns="http://www.w3.org/2000/svg" width="256" height="256" viewBox="0 0 256 256">
  <g id="그룹_7" data-name="그룹 7" transform="translate(4472 -12864.856)">
    <g id="그룹_6" data-name="그룹 6" transform="translate(-4472 12865)">
      <rect id="사각형_64" data-name="사각형 64" width="256" height="256" transform="translate(0 -0.144)" fill="none"/>
      <g id="그룹_5" data-name="그룹 5" transform="translate(23.728 24.086)">
        <path id="패스_1" data-name="패스 1" d="M61.734,92.386C43.7,92.264,29.869,78.3,30.106,60.453c.227-17.13,14.53-31.092,31.881-31.122,17.72-.03,32.218,14.31,32.126,31.777-.094,17.69-14.282,31.4-32.378,31.277M48.706,61.129c.064,7.426,5.52,12.805,13.1,12.916,7.941.117,13.67-5.476,13.564-13.248a13.335,13.335,0,0,0-26.668.333" transform="translate(38.932 37.931)" fill="#232077"/>
        <path id="패스_2" data-name="패스 2" d="M20.59,135.582c-11.145.1-15.525-7.26-11.214-14.707a20,20,0,0,1,3.71-4.366A255.157,255.157,0,0,0,57.231,62.485c2.025-3.346,7.13-6.536,10.962-6.724,7.82-.385,12.315,7.827,8.221,15.532a184.568,184.568,0,0,1-18.545,28.993c-8.379,10.446-18.052,19.9-27.613,29.328-3.135,3.094-7.666,4.772-9.666,5.967" transform="translate(10.013 72.102)" fill="#232077"/>
        <path id="패스_3" data-name="패스 3" d="M111.934,124.946c-5.286-2.711-9.794-3.956-12.854-6.774C84.37,104.623,69.824,90.875,55.7,76.717,49.994,71,50.421,62.478,55.278,58.243c4.749-4.139,11.6-2.889,17.481,2.855,14.7,14.356,29.727,28.388,44.074,43.088,2.7,2.768,4.453,8.347,3.7,12.026-.672,3.275-5.424,5.712-8.6,8.735" transform="translate(66.639 72.17)" fill="#232077"/>
        <path id="패스_4" data-name="패스 4" d="M79.28,58.351c-3.568,0-7.2.413-10.693-.092-5.933-.858-9.393-4.658-9.434-10.673-.041-5.8,3.364-9.132,9.084-9.849,16.9-2.119,33.8-4.281,50.738-6.16,5.91-.656,11.306.842,12.67,7.675,1.337,6.7-2.706,10.87-8.512,12.136-14.447,3.151-29.062,5.529-43.611,8.219l-.241-1.257" transform="translate(76.499 40.658)" fill="#232077"/>
        <path id="패스_5" data-name="패스 5" d="M50.388,61.88c-13.8-3.284-27.656-6.352-41.375-9.946C2.842,50.317-1.407,46.086.432,39.186c1.924-7.217,7.774-8.59,14.4-7.288,12.615,2.481,25.177,5.233,37.815,7.6,9.049,1.7,12.842,4.981,11.927,11.443-1.144,8.084-7.047,9.586-14.186,10.939" transform="translate(0 40.692)" fill="#232077"/>
        <path id="패스_6" data-name="패스 6" d="M66.943,23.857c-.908,9.022-1.532,18.082-2.809,27.051C62.87,59.8,58.35,63.656,51.346,62.778c-6.932-.869-9.854-5.939-9.028-14.819.94-10.122,1.493-20.281,2.337-30.413.294-3.541-.131-7.836,1.715-10.375C48.782,3.851,53.261-.206,56.6.008c3.385.218,8.033,4.7,9.278,8.3,1.608,4.658.392,10.292.392,15.5l.677.041" transform="translate(54.554 0.002)" fill="#232077"/>
        <path id="패스_7" data-name="패스 7" d="M38.944,100.742c1.683-11.122,3.272-22.258,5.091-33.357.878-5.359,4.082-8.5,9.771-7.646,6.162.926,8.015,5.462,7.373,10.916-1.254,10.627-2.887,21.212-4.428,31.8-.855,5.882-3.768,10.028-10.274,9.292-6.325-.713-7.524-5.518-7.533-11.01" transform="translate(50.365 77.076)" fill="#f8b131"/>
        <path id="패스_8" data-name="패스 8" d="M66.641,46.51a59.364,59.364,0,0,1,6.407,1.626c10.168,4.146,20.336,8.3,30.438,12.608,5.467,2.335,8.657,6.483,6.242,12.427-2.47,6.089-7.792,5.24-12.636,3.282C86.406,72.13,75.642,67.915,65.35,62.771c-2.66-1.328-5.3-6.086-5.008-8.971.284-2.793,4.353-5.2,6.3-7.29" transform="translate(78.009 60.152)" fill="#f8b131"/>
        <path id="패스_9" data-name="패스 9" d="M61.741,50.8c-1.082-.933-4.531-2.545-5.421-5.059-.922-2.61-.5-7.315,1.3-8.989A276.7,276.7,0,0,1,82.994,15.877c2.023-1.475,6.845-1.231,9.022.234s3.763,5.522,3.593,8.32c-.445,7.348-24.217,26.6-33.869,26.37" transform="translate(72.226 19.248)" fill="#f8b131"/>
        <path id="패스_10" data-name="패스 10" d="M17.474,74.311c-2.557-2.6-7.254-5.261-8.006-8.769-.658-3.057,2.277-9.063,5.121-10.278a92.366,92.366,0,0,1,25.132-6.875C42.945,48,48.511,51.9,49.761,55.1c1.02,2.619-1.869,9.152-4.635,10.4C37,69.188,28.081,71.1,17.474,74.311" transform="translate(12.126 62.548)" fill="#f8b131"/>
        <path id="패스_11" data-name="패스 11" d="M56.342,42.522c-2.431,3.22-3.667,6.563-5.6,7.026-3.137.752-8.742.832-9.788-.913a273.29,273.29,0,0,1-15.5-30.358c-.745-1.688,1.6-6.3,3.6-7.24,2.479-1.156,7.875-1.059,8.925.532C44.541,21.5,50.235,32,56.342,42.522" transform="translate(32.741 13.276)" fill="#f8b131"/>
        <path id="패스_12" data-name="패스 12" d="M36.028,44.687c-5.151.092-18.334-11.546-18.855-16.642-.539-5.272,4.362-9.221,9.118-6.332A66.727,66.727,0,0,1,41.64,34.819c3.238,3.717-.644,9.781-5.612,9.868" transform="translate(22.158 26.82)" fill="#f8b131"/>
      </g>
    </g>
  </g>
</svg>
