<svg width="183" height="41" viewBox="0 0 183 41" fill="none" xmlns="http://www.w3.org/2000/svg">
<path d="M61.1131 25.9278C60.6646 25.2594 60.0448 24.7046 59.2653 24.2768C59.4635 22.6859 59.351 20.1492 57.9702 16.5564C55.9763 11.3677 49.3378 9.23208 46.158 8.49179L45.3114 1.61532C45.2475 1.08893 44.957 0.617683 44.5168 0.318561C44.0767 0.019438 43.5275 -0.0741422 43.0134 0.0595439C38.1958 1.30115 31.7354 6.00857 31.4616 6.20743C31.391 6.25923 31.3272 6.31605 31.2667 6.37454C29.8389 5.66935 28.191 5.05606 26.3013 4.56978C20.3313 3.03573 11.9761 6.75554 6.43282 13.4131C1.6488 19.1599 -1.51927 28.2122 1.68744 34.3918C4.2827 39.3933 7.65066 40.4444 10.0192 40.4444C10.3299 40.4444 10.644 40.4261 10.9531 40.3876C16.0882 39.7643 20.4724 34.3383 21.5912 29.6693C23.187 22.9984 28.905 12.87 28.9621 12.7681C29.204 12.3403 29.2661 11.844 29.1334 11.3711C29.0007 10.8981 28.6916 10.5054 28.2616 10.2631C27.3747 9.76515 26.2459 10.0776 25.7436 10.96C25.4984 11.3928 19.7165 21.6248 17.9964 28.8171C17.1616 32.3046 13.9532 36.3202 10.5063 36.738C8.35953 36.9987 6.49665 35.6434 4.97309 32.7057C2.82801 28.5698 4.67913 21.2839 9.28005 15.7576C13.8793 10.2347 20.8 6.9544 25.3791 8.12917C35.0479 10.6124 36.0541 16.2723 35.6258 18.2442C34.7153 22.4352 38.4545 24.3837 40.7021 25.5568C40.8936 25.6571 41.08 25.754 41.2598 25.8493C42.491 26.5093 43.4048 27.4535 43.6417 28.3158C43.813 28.9324 43.6837 29.5641 43.2385 30.3043C42.2491 31.9453 39.5632 34.9232 35.7786 35.6769C32.7567 36.2784 29.555 35.3594 26.266 32.9463C25.8696 32.6555 25.3808 32.5352 24.8936 32.6071C24.4048 32.6806 23.9748 32.938 23.6825 33.334C23.3902 33.7284 23.2693 34.2147 23.3415 34.6993C23.4137 35.1839 23.6741 35.6134 24.0722 35.9041C28.2347 38.9588 32.4174 40.0952 36.5026 39.2814C41.2245 38.3422 44.789 34.8764 46.4066 32.196C47.3792 30.5817 47.648 28.9491 47.2045 27.3432C46.4772 24.7129 44.0297 23.1605 43.0101 22.6141C42.8236 22.5138 42.6288 22.4119 42.4306 22.3082L42.4037 22.2949C39.9478 21.0148 38.9652 20.2762 39.2373 19.0229C39.8605 16.152 38.8291 11.854 34.6246 8.49012C36.1331 7.45907 39.155 5.49555 41.9233 4.3258L42.6523 10.2531C42.7514 11.0619 43.3864 11.717 44.196 11.8456C44.2817 11.859 52.7511 13.2711 54.5183 17.8732C56.1897 22.223 55.5312 24.3085 55.4321 24.5776C55.1599 25.0722 55.1398 25.6537 55.3783 26.1835C55.6185 26.7182 56.1124 27.0925 56.7238 27.2078C57.0178 27.268 57.7586 27.5437 58.0424 27.9749C58.1332 28.1136 58.2423 28.3559 58.1332 28.8689C57.5066 31.83 54.1 34.8012 46.4234 34.2648C45.9312 34.2314 45.4558 34.3885 45.0829 34.711C44.71 35.0335 44.4849 35.4797 44.4513 35.9693C44.3791 36.9803 45.1484 37.861 46.1647 37.9328C46.8534 37.9813 47.5321 38.0047 48.1821 38.0047C56.8784 38.0047 60.893 33.6766 61.7497 29.6259C62.0387 28.2606 61.8203 26.9822 61.1165 25.9311L61.1131 25.9278Z" fill="#2D3E50"/>
<path d="M54.0882 23.9776C54.0882 22.472 52.8569 21.2471 51.3434 21.2471C49.8299 21.2471 48.5986 22.472 48.5986 23.9776C48.5986 25.4832 49.8299 26.7081 51.3434 26.7081C52.8569 26.7081 54.0882 25.4832 54.0882 23.9776Z" fill="#2D3E50"/>
<path d="M34.9673 23.1422C34.9673 21.6365 33.7361 20.4116 32.2226 20.4116C30.7091 20.4116 29.4795 21.6365 29.4795 23.1422C29.4795 24.6478 30.7108 25.8727 32.2226 25.8727C33.7344 25.8727 34.9673 24.6478 34.9673 23.1422Z" fill="#2D3E50"/>
<path d="M75.2477 29.8344C75.2477 31.3317 74.0769 31.97 72.8775 31.97C71.5673 31.97 70.3965 31.3049 70.3965 29.8344V12.4134C70.3965 11.4425 71.2045 10.9429 72.4038 10.9429H78.9852C83.7256 10.9429 87.6848 12.746 87.6848 17.4617V17.6288C87.6848 22.3446 83.9204 24.1761 79.2086 24.1761H75.2494V29.8344H75.2477ZM79.2069 21.0128C81.4662 21.0128 82.8605 20.0135 82.8605 17.8227V17.435C82.8605 15.2994 81.132 14.3552 78.7887 14.3552H75.2477V21.0128H79.2069Z" fill="#2D3E50"/>
<path d="M101.32 28.5025C102.742 28.5025 103.522 29.3063 103.522 30.2772C103.522 31.0259 102.796 31.97 101.32 31.97H91.1419C89.8316 31.97 89.0791 31.2765 89.0791 30.0566V12.6908C89.0791 11.6648 89.9711 10.9429 91.1704 10.9429H101.377C102.8 10.9429 103.524 11.7199 103.524 12.6908C103.524 13.4679 102.91 14.3552 101.377 14.3552H93.9034V19.7361H100.428C101.85 19.7361 102.49 20.4847 102.49 21.4556C102.49 22.2327 101.961 23.12 100.428 23.12H93.9034V28.5009H101.321L101.32 28.5025Z" fill="#2D3E50"/>
<path d="M106.618 14.3268C105.056 14.3268 104.498 13.523 104.498 12.6073C104.498 11.7751 105 10.9429 106.618 10.9429H120.671C122.233 10.9429 122.791 11.7199 122.791 12.6908C122.791 13.523 122.289 14.3268 120.671 14.3268H116.099V29.8327C116.099 31.33 114.872 31.9683 113.7 31.9683C112.417 31.9683 111.246 31.2749 111.246 29.8327V14.3268H106.616H106.618Z" fill="#2D3E50"/>
<path d="M124.063 27.913C123.819 25.789 124.499 23.4228 125.373 21.6364C126.149 19.9469 127.654 17.7261 129.352 16.6633C130.857 15.7459 132.507 15.6005 133.866 16.421C134.642 16.9039 134.934 17.6759 134.4 18.1589C133.915 18.6418 132.653 17.965 131.731 18.1104C130.857 18.2558 129.935 19.0278 129.208 19.8968C128.188 21.1518 127.412 22.746 126.975 24.387C126.636 25.642 126.49 26.4625 126.685 27.9597C126.88 29.4086 127.607 30.0837 129.21 29.843C130.859 29.6492 132.267 29.3116 133.723 28.4427C133.723 28.4427 134.743 27.9597 135.082 28.3458C135.809 29.1663 134.838 29.94 134.062 30.4697C132.994 31.2902 130.374 32.3045 129.015 32.3045C128.383 32.3045 127.607 32.3045 126.928 32.0639C124.793 31.2919 124.308 29.9884 124.064 27.9113L124.063 27.913Z" fill="#E64D3D"/>
<path d="M138.672 28.2988C138.672 27.1407 138.962 25.4496 139.303 24.2431C140.128 21.4423 141.682 17.0491 144.254 16.1801C145.71 15.6972 147.167 17.146 147.506 18.5464C147.652 18.015 147.943 17.1945 148.137 16.8084C148.574 15.9395 148.865 15.4565 149.545 15.4565C150.272 15.4565 150.565 15.6019 150.709 16.1801C150.758 16.4692 150.758 17.0491 150.709 17.3382C150.466 18.6901 150.126 19.9935 150.078 21.4423C150.029 22.5051 150.368 23.7601 150.563 24.5806C150.758 25.3042 151 25.8841 151.29 26.5124C151.969 28.0097 153.184 29.4585 154.494 30.0367C154.979 30.2305 155.853 30.3742 155.853 31.0995C155.853 32.0169 155.028 31.92 154.494 31.8231C151.873 31.437 149.834 29.2646 148.621 26.8499C148.379 26.367 147.99 25.3042 147.894 24.8229C147.457 26.1264 146.535 28.155 146.001 29.024C144.981 30.665 143.332 32.9343 141.195 32.9343C140.758 32.9343 140.321 32.6937 139.933 32.4029C138.672 31.4855 138.672 29.7476 138.672 28.2988ZM141.002 28.8302C141.002 29.1193 140.953 30.5196 141.292 30.4712C142.117 30.3742 143.476 28.5394 144.156 27.4298C144.398 27.0438 145.369 25.3059 145.564 24.8714C145.952 24.0509 146.389 22.9396 146.632 21.9737C146.438 20.042 145.759 18.4494 145.176 18.4494C144.156 18.4494 142.7 22.216 142.263 23.3256C141.536 25.1605 141.05 26.9469 141.002 28.8302Z" fill="#E64D3D"/>
<path d="M157.213 16.3255C156.971 15.8426 157.359 15.2627 157.504 15.119C157.795 14.9251 158.136 14.733 158.621 14.8767C159.009 15.0221 159.253 15.3596 159.543 15.7456C159.834 16.1801 160.563 17.5805 160.805 18.2088C161.388 17.2914 161.824 16.6146 162.164 16.2286C162.6 15.6972 162.94 15.3112 163.523 14.7797C164.64 13.7654 165.95 13.0418 167.211 12.6073C167.89 12.4135 168.424 12.2698 168.958 12.2213C169.978 12.1729 170.269 13.2357 169.686 13.5248C168.958 13.9108 168.327 14.2968 167.502 14.8282C166.24 15.6487 164.977 16.8569 163.813 18.304C163.086 19.173 162.406 20.2843 162.115 21.5392C161.969 22.3113 161.969 23.085 162.115 23.8086C162.357 25.2574 162.6 27.3813 162.698 28.0581C162.795 28.7332 162.988 29.6991 163.086 30.3759C163.183 30.9558 162.988 31.6793 161.969 31.6793C161.095 31.6793 160.756 30.8588 160.366 29.6991C160.076 28.7817 159.493 25.981 159.395 24.9182C159.298 24.3383 159.105 22.7458 159.105 22.5035C158.959 21.2 158.619 19.5574 158.28 18.5931C158.036 18.0133 157.648 17.2897 157.212 16.3238L157.213 16.3255Z" fill="#E64D3D"/>
<path d="M170.123 29.6523C170.025 28.252 170.123 26.8516 170.462 25.3075C170.657 24.3901 170.948 23.4242 171.238 22.6037C172.597 18.7886 174.539 15.3128 177.45 15.6988C179.004 15.9879 179.78 17.3883 179.634 19.8999C179.439 22.1692 178.858 24.0525 177.499 25.1153C176.576 25.8389 176.091 26.0328 175.266 26.0328C174.927 26.0328 173.907 25.8874 173.227 25.5498C172.936 26.3703 172.595 27.9645 172.839 29.171C172.936 29.8462 173.518 29.9915 174.344 29.8462C176.042 29.5571 176.723 29.4601 178.711 28.9287C179.536 28.6881 180.458 28.4458 181.624 28.1082C182.4 28.0598 182.449 29.1226 182.352 29.4117C182.254 29.7008 182.157 29.7008 182.061 29.7977C180.702 30.5213 180.168 30.7151 178.47 31.295C177.013 31.7779 176.674 31.8748 175.752 32.067C174.878 32.2609 174.198 32.453 173.276 32.453C171.383 32.453 170.267 31.5356 170.121 29.6523H170.123ZM174.104 22.3129C174.006 22.602 173.909 22.9413 173.765 23.5195C174.104 23.7133 175.318 24.0509 175.948 23.7133C177.258 23.0382 177.695 21.0095 177.695 19.3201C177.695 18.6917 177.549 18.1135 176.919 18.1135C175.997 18.1135 175.27 19.417 174.929 20.189C174.782 20.4781 174.297 21.5894 174.104 22.3129Z" fill="#E64D3D"/>
</svg>
